<svg width="250" height="56" viewBox="0 0 250 56" fill="none" xmlns="http://www.w3.org/2000/svg">
<path d="M20.7178 13.0346C18.4285 17.4406 16.1356 21.8512 13.3606 26.1475C11.9892 28.271 10.4928 30.3632 8.81778 32.4016C7.24278 34.3168 5.41064 36.1334 3.7535 38.0195C1.92493 40.096 0.424927 42.3046 0.178498 44.6992C0.135641 45.1315 1.20707 45.1293 1.24993 44.6992C1.46778 42.5914 2.74636 40.6202 4.31778 38.7744C5.88921 36.9286 7.7785 35.0874 9.36778 33.1923C12.7499 29.1603 15.4106 24.9066 17.8106 20.6125C19.1821 18.1597 20.4678 15.6867 21.7499 13.216C21.9642 12.8038 20.9285 12.6269 20.7178 13.0368V13.0346Z" fill="white"/>
<path d="M6.91427 12.264C16.8178 12.0759 26.6964 11.4151 36.4428 10.2951C39.1893 9.97923 41.9286 9.62531 44.6536 9.23779C45.325 9.14147 45.0428 8.49411 44.3678 8.59043C34.7857 9.95683 25.0464 10.8752 15.2464 11.3255C12.475 11.4532 9.69641 11.5405 6.91784 11.5943C6.22856 11.6077 6.22856 12.2797 6.91784 12.2663L6.91427 12.264Z" fill="white"/>
<path d="M19.9749 43.9846C19.0714 43.6285 18.8607 42.8176 18.7928 42.2038C18.7142 41.496 18.7928 40.7859 19.0321 40.0915C19.4928 38.7408 20.4964 37.4461 22.0178 36.4403C22.8392 35.8982 23.7964 35.457 24.8821 35.1456C25.5071 34.9664 24.9642 34.3862 24.3428 34.5654C19.8285 35.8579 17.3392 39.2784 17.7321 42.2867C17.8428 43.1334 18.2142 44.081 19.4357 44.5626C20.0214 44.7933 20.5607 44.2131 19.9749 43.9824V43.9846Z" fill="white"/>
<path d="M30.9393 39.3568C30.5714 41.1757 30.2143 43.2522 28.2607 44.7104C27.4857 45.2883 26.4464 45.799 25.2179 45.8976C23.7643 46.0141 22.425 45.4854 21.375 44.9098C20.8571 44.6275 20.0964 45.1002 20.6179 45.3846C21.5929 45.9178 22.7321 46.4038 24.0357 46.5382C25.1536 46.6525 26.2571 46.5046 27.2321 46.1462C29.4179 45.3421 30.5964 43.8166 31.2071 42.3338C31.6107 41.3571 31.8071 40.3536 32.0107 39.3568C32.0964 38.929 31.025 38.9334 30.9393 39.3568Z" fill="white"/>
<path d="M38.7894 34.4691C38.7751 38.127 36.6322 41.6214 36.4358 45.2704L37.4894 45.1808C36.8715 42.4077 38.5072 39.3366 41.9037 37.4819C42.8037 36.9913 44.1501 36.3485 45.3965 36.3888C46.0858 36.4112 46.0822 35.7392 45.3965 35.7168C44.1001 35.6742 42.8144 36.1939 41.818 36.6665C40.8215 37.1392 40.0251 37.6656 39.3037 38.2704C37.8001 39.527 36.8322 41.0547 36.4715 42.607C36.2572 43.5254 36.2537 44.4416 36.4572 45.3622C36.543 45.7497 37.4894 45.6355 37.5108 45.2726C37.7108 41.6237 39.8537 38.1315 39.8644 34.4713C39.8644 34.039 38.793 34.039 38.793 34.4713L38.7894 34.4691Z" fill="white"/>
<path d="M66.4571 14.7235C61.2142 19.9897 57.1714 25.7196 54.3464 31.6691C52.9214 34.6729 51.8071 37.735 51.0107 40.8307C50.5857 42.4838 50.2142 44.1616 50.3928 45.8393C50.5357 47.1699 50.9464 48.9596 53.2678 49.4659C54.4249 49.719 55.7321 49.5756 56.8999 49.4188C58.1428 49.2531 59.3499 48.991 60.5071 48.6572C62.8535 47.9808 64.9499 46.975 66.6714 45.7721C67.1321 45.4518 66.3749 44.9747 65.9142 45.2972C64.4214 46.3411 62.6607 47.2192 60.6714 47.862C59.7214 48.1689 58.7321 48.4176 57.7035 48.6012C56.6749 48.7849 55.5821 48.9484 54.5142 48.926C51.9928 48.8723 51.5964 47.0892 51.4642 45.8371C51.2928 44.2198 51.6357 42.6003 52.0464 41.0076C53.5607 35.112 56.2249 29.3216 60.0249 23.8448C62.1321 20.8096 64.5857 17.8707 67.3821 15.0617C67.7499 14.6944 66.8214 14.3561 66.4571 14.7235Z" fill="white"/>
<path d="M48.8 37.0652C53.525 35.8086 58.5036 34.935 63.5786 34.4668C64.2571 34.4041 63.9678 33.7567 63.2928 33.8195C58.1143 34.2966 53.075 35.206 48.2571 36.4851C47.9893 36.5567 47.9357 36.8009 48.0643 36.9443C48.2214 37.119 48.5321 37.1347 48.7964 37.0652H48.8Z" fill="white"/>
<path d="M71.0214 41.0637C73.4821 40.2752 75.9036 39.3747 77.8036 38.0957C79.5821 36.8995 80.9 35.3875 81.2786 33.7568C81.475 32.9101 81.4464 32.0208 80.8643 31.2323C80.3679 30.5626 79.3393 29.9757 78.1179 29.9555C76.8286 29.9331 75.7393 30.5738 74.8571 31.0867C73.975 31.5997 73.125 32.2157 72.3964 32.8518C70.9107 34.1443 69.8179 35.6205 69.1429 37.1571C68.4214 38.7968 68.1 40.5664 68.55 42.2531C68.9607 43.792 70.2 45.1562 72.225 46.0746C74.0143 46.8855 76.225 47.264 78.3964 47.385C83.4179 47.6694 89.1893 46.6861 91.4857 43.6061C91.75 43.2499 91.9607 42.8826 92.1107 42.4995C92.275 42.0806 91.2429 41.9014 91.0786 42.3203C90.5357 43.6934 89.125 44.8806 87.2214 45.6333C85.0857 46.4778 82.5 46.7443 80.0107 46.7555C76.0786 46.7712 71.7714 45.8752 70.1714 43.4157C69.2214 41.9597 69.275 40.2819 69.6786 38.7542C70.0821 37.2266 70.8107 35.8938 71.9214 34.6013C73.0321 33.3088 74.3679 32.2336 76.0643 31.313C76.9143 30.8515 77.975 30.3542 79.0536 30.8538C80.0107 31.2973 80.3071 32.0947 80.325 32.8026C80.3679 34.487 79.1107 36.1446 77.3786 37.3968C75.4964 38.7542 73.0107 39.6771 70.4821 40.488C69.8679 40.6851 70.4107 41.2653 71.0214 41.0682V41.0637Z" fill="white"/>
<path d="M132.732 8.23876C131.761 14.3226 130.629 20.3975 129.336 26.4589C128.043 32.5204 126.611 38.4922 125.011 44.4842C124.564 46.1508 124.107 47.8173 123.639 49.4816C123.464 50.1066 123.211 50.7316 123.522 51.3588C123.768 51.8538 124.393 52.2458 125.243 51.9837C125.861 51.7911 125.318 51.2109 124.704 51.4036C124.732 51.3946 124.764 51.4685 124.704 51.3856C124.654 51.3139 124.593 51.258 124.554 51.1818C124.447 50.9735 124.414 50.745 124.439 50.5255C124.522 49.84 124.818 49.1434 125.007 48.4669C125.411 47.0199 125.804 45.5706 126.189 44.1191C126.95 41.2541 127.675 38.3847 128.361 35.5108C129.75 29.7114 130.993 23.8964 132.089 18.0724C132.707 14.7975 133.275 11.5181 133.8 8.23652C133.868 7.80644 132.797 7.80868 132.729 8.23652L132.732 8.23876Z" fill="white"/>
<path d="M130.814 15.6419C134.011 13.1466 137.889 11.0029 142.325 9.41248C143.404 9.0272 144.511 8.67328 145.643 8.35744C146.718 8.05728 147.839 7.74592 148.982 7.56672C152.336 7.04256 151.046 10.4115 150.668 11.4643C149.329 15.1827 147.811 18.8765 146.246 22.5613C144.807 25.9504 143.436 29.3597 141.718 32.6995C140.114 35.8198 138.146 38.9021 135.218 41.6326C134.861 41.9664 134.486 42.2934 134.104 42.6138C133.689 42.9587 134.618 43.2947 135.029 42.952C138.3 40.2237 140.496 37.0608 142.239 33.8442C144.104 30.4102 145.511 26.88 147.004 23.3766C148.632 19.5507 150.221 15.7181 151.621 11.8563C151.954 10.9379 152.346 9.99936 152.311 9.0496C152.279 8.28576 151.979 7.31808 150.746 6.96416C149.618 6.63936 148.343 6.96416 147.264 7.21728C146.068 7.49728 144.889 7.8176 143.743 8.17376C139.039 9.63424 134.832 11.7174 131.364 14.1837C130.914 14.504 130.479 14.831 130.054 15.1626C129.629 15.4941 130.379 15.9757 130.811 15.6374L130.814 15.6419Z" fill="white"/>
<path d="M144.221 40.2484C146.007 40.6471 147.679 39.8205 148.918 39.106C150.157 38.3914 151.382 37.5917 152.286 36.6711C153.039 35.9005 154.296 34.5095 152.782 33.8039C151.454 33.1834 149.418 33.5642 148.157 34.0637C143.132 36.0596 142.739 41.449 147.354 43.7607C149.843 45.0084 153.396 45.2817 156.136 44.1796C156.714 43.9466 156.179 43.3642 155.597 43.5994C153.604 44.4036 151.079 44.3834 149.029 43.6644C146.846 42.8983 145.546 41.4647 145.282 39.9258C145.018 38.3869 145.586 36.7226 147.154 35.5175C148.029 34.8455 149.289 34.2676 150.7 34.1802C151.214 34.1489 151.979 34.1489 152.318 34.4468C152.711 34.7895 152.111 35.4503 151.857 35.7729C151.132 36.7002 150.057 37.4865 148.886 38.2033C147.804 38.8641 146.193 39.9773 144.511 39.5988C143.861 39.4532 143.579 40.1028 144.225 40.2461L144.221 40.2484Z" fill="white"/>
<path d="M197.586 17.378C198.078 22.7629 195.507 27.9709 193.225 33.0983C192.053 35.7348 190.975 38.3869 190 41.0548C189.511 42.3943 189.046 43.7405 188.611 45.0868C188.446 45.5952 187.971 46.3524 188.678 46.778C188.943 46.9392 189.311 46.9818 189.664 46.9885C190.189 46.9997 190.725 46.9639 191.246 46.9504C196.275 46.8228 201.303 46.6951 206.332 46.5674C207.018 46.5495 207.021 45.8775 206.332 45.8954C202.014 46.0052 197.696 46.1149 193.375 46.2247C192.311 46.2516 191.246 46.2784 190.182 46.3053C190.007 46.3098 189.711 46.3479 189.532 46.312C189.371 46.2807 189.375 46.2448 189.378 46.1373C189.389 45.817 189.578 45.4698 189.678 45.1562C190.107 43.8458 190.557 42.5376 191.036 41.2317C191.986 38.6333 193.028 36.0484 194.168 33.4791C195.271 30.9882 196.443 28.5063 197.325 25.9796C198.307 23.1572 198.921 20.2698 198.657 17.378C198.618 16.9479 197.546 16.9456 197.586 17.378Z" fill="white"/>
<path d="M215.507 34.776C215.15 39.1104 214.586 43.4359 213.814 47.7501C213.736 48.1802 214.811 48.1757 214.886 47.7501C215.657 43.4381 216.222 39.1104 216.579 34.776C216.614 34.3437 215.543 34.346 215.507 34.776Z" fill="white"/>
<path d="M217.261 29.9219C217.95 29.9219 217.95 29.2499 217.261 29.2499C216.571 29.2499 216.571 29.9219 217.261 29.9219Z" fill="white"/>
<path d="M225.007 35.2509C225.414 39.1529 225.228 43.0752 224.453 46.9549H225.525C226.196 43.5859 226.878 39.7219 230.907 37.1952C231.736 36.6777 232.7 36.2275 233.786 35.9453C234.293 35.8131 234.836 35.7168 235.378 35.6675C235.921 35.6182 236.643 35.5667 237.057 35.8512C237.864 36.4022 237.671 37.4461 237.571 38.1181C237.421 39.0992 237.028 40.0579 236.653 41.0121C235.8 43.1782 235.157 45.3712 234.736 47.5865C234.653 48.0144 235.725 48.0121 235.807 47.5865C236.214 45.4317 236.857 43.2992 237.686 41.1913C238.086 40.1766 238.486 39.1619 238.643 38.1181C238.764 37.3072 238.85 36.2925 238.075 35.5824C237.3 34.8723 235.85 34.8969 234.611 35.0739C233.371 35.2509 232.236 35.6339 231.239 36.1177C229.05 37.1817 227.571 38.7094 226.607 40.3177C225.336 42.439 224.9 44.7149 224.457 46.9504C224.371 47.3782 225.443 47.3737 225.528 46.9504C226.307 43.0707 226.489 39.1485 226.082 35.2464C226.036 34.8163 224.964 34.8141 225.011 35.2464L225.007 35.2509Z" fill="white"/>
<path d="M246.4 35.8467C245.95 39.6054 245.075 43.3395 243.761 47.0176C243.393 48.048 242.993 49.0739 242.557 50.0931C242.379 50.512 243.414 50.689 243.589 50.2723C245.15 46.5987 246.279 42.8557 246.979 39.079C247.179 38.0038 247.339 36.9264 247.468 35.8467C247.518 35.4144 246.447 35.4166 246.397 35.8467H246.4Z" fill="white"/>
<path d="M248.571 31.7543C249.261 31.7543 249.261 31.0823 248.571 31.0823C247.882 31.0823 247.882 31.7543 248.571 31.7543Z" fill="white"/>
</svg>
