<svg width="687" height="169" viewBox="0 0 687 169" fill="none" xmlns="http://www.w3.org/2000/svg">
<path d="M56.9327 39.3364C50.6417 52.6334 44.341 65.9438 36.7153 78.9095C32.9466 85.318 28.8344 91.6318 24.2315 97.7834C19.9034 103.563 14.8687 109.046 10.3148 114.737C5.28993 121.004 1.16793 127.669 0.490745 134.896C0.372974 136.2 3.31726 136.194 3.43503 134.896C4.0337 128.535 7.54722 122.586 11.8655 117.016C16.1838 111.445 21.3755 105.889 25.7429 100.17C35.037 88.0017 42.3487 75.1644 48.9439 62.2055C52.7126 54.8033 56.2457 47.3403 59.769 39.884C60.3579 38.6402 57.5117 38.1061 56.9327 39.3432V39.3364Z" fill="white"/>
<path d="M19.0004 37.011C46.2154 36.4432 73.3617 34.449 100.145 31.069C107.692 30.1158 115.22 29.0477 122.708 27.8782C124.553 27.5876 123.778 25.6339 121.923 25.9246C95.5911 30.0482 68.8275 32.8198 41.8971 34.1786C34.2812 34.5639 26.6457 34.8275 19.0102 34.9898C17.1161 35.0303 17.1161 37.0583 19.0102 37.0178L19.0004 37.011Z" fill="white"/>
<path d="M54.8912 132.739C52.4082 131.665 51.8291 129.217 51.6427 127.365C51.4267 125.229 51.6427 123.086 52.3002 120.99C53.5663 116.914 56.3241 113.007 60.505 109.972C62.7623 108.336 65.3925 107.004 68.376 106.064C70.0935 105.524 68.6018 103.773 66.8941 104.314C54.4888 108.214 47.6483 118.537 48.7278 127.615C49.0321 130.171 50.0527 133.03 53.4092 134.483C55.0188 135.18 56.5007 133.429 54.8912 132.733V132.739Z" fill="white"/>
<path d="M85.0212 118.773C84.0103 124.262 83.0289 130.529 77.6604 134.93C75.5307 136.674 72.6748 138.215 69.2987 138.512C65.3043 138.864 61.6239 137.269 58.7385 135.531C57.3154 134.679 55.225 136.106 56.6579 136.964C59.3372 138.573 62.4679 140.04 66.0501 140.446C69.122 140.791 72.1546 140.344 74.8339 139.263C80.8403 136.836 84.079 132.232 85.7572 127.757C86.8662 124.81 87.406 121.781 87.9654 118.773C88.201 117.482 85.2567 117.496 85.0212 118.773Z" fill="white"/>
<path d="M106.593 104.023C106.554 115.062 100.665 125.608 100.125 136.62L103.02 136.349C101.323 127.98 105.818 118.712 115.151 113.115C117.624 111.635 121.324 109.695 124.749 109.816C126.643 109.884 126.634 107.856 124.749 107.788C121.187 107.66 117.654 109.228 114.915 110.654C112.177 112.081 109.989 113.669 108.006 115.495C103.874 119.287 101.215 123.897 100.223 128.582C99.6345 131.354 99.6247 134.118 100.184 136.897C100.42 138.066 103.02 137.721 103.079 136.626C103.629 125.614 109.518 115.075 109.547 104.03C109.547 102.725 106.603 102.725 106.603 104.03L106.593 104.023Z" fill="white"/>
<path d="M182.624 44.4335C168.217 60.3263 157.107 77.6184 149.344 95.5729C145.428 104.638 142.366 113.879 140.177 123.221C139.01 128.21 137.989 133.273 138.48 138.337C138.872 142.352 140.001 147.753 146.38 149.281C149.56 150.045 153.152 149.612 156.361 149.139C159.777 148.639 163.094 147.848 166.274 146.841C172.722 144.799 178.483 141.764 183.213 138.134C184.479 137.167 182.399 135.727 181.132 136.701C177.03 139.851 172.192 142.501 166.725 144.441C164.115 145.367 161.396 146.117 158.569 146.672C155.743 147.226 152.74 147.72 149.805 147.652C142.876 147.49 141.787 142.109 141.424 138.33C140.953 133.449 141.895 128.562 143.024 123.755C147.185 105.963 154.506 88.4884 164.949 71.9602C170.739 62.8004 177.482 53.9313 185.166 45.4543C186.177 44.3456 183.625 43.3249 182.624 44.4335Z" fill="white"/>
<path d="M134.102 111.858C147.087 108.065 160.768 105.429 174.714 104.016C176.579 103.827 175.784 101.873 173.929 102.062C159.698 103.502 145.85 106.247 132.611 110.107C131.874 110.323 131.727 111.06 132.081 111.493C132.512 112.02 133.366 112.067 134.092 111.858H134.102Z" fill="white"/>
<path d="M195.167 123.924C201.929 121.545 208.583 118.827 213.804 114.967C218.692 111.358 222.313 106.795 223.353 101.873C223.893 99.3179 223.815 96.6342 222.215 94.2547C220.851 92.2335 218.024 90.4623 214.668 90.4015C211.125 90.3339 208.132 92.2673 205.707 93.8153C203.283 95.3633 200.947 97.2224 198.945 99.1422C194.863 103.043 191.859 107.498 190.005 112.135C188.022 117.083 187.139 122.424 188.375 127.514C189.504 132.158 192.91 136.275 198.474 139.046C203.391 141.494 209.466 142.636 215.433 143.001C229.232 143.86 245.092 140.892 251.403 131.597C252.129 130.522 252.708 129.413 253.12 128.258C253.572 126.993 250.735 126.453 250.284 127.717C248.792 131.861 244.915 135.443 239.684 137.715C233.816 140.263 226.71 141.068 219.869 141.102C209.064 141.149 197.228 138.445 192.831 131.022C190.22 126.628 190.368 121.565 191.477 116.955C192.586 112.344 194.588 108.322 197.64 104.422C200.692 100.521 204.363 97.2764 209.025 94.4981C211.36 93.1055 214.275 91.6048 217.239 93.1123C219.869 94.4508 220.684 96.8573 220.733 98.9935C220.851 104.077 217.396 109.079 212.636 112.858C207.464 116.955 200.633 119.74 193.685 122.187C191.997 122.782 193.489 124.533 195.167 123.938V123.924Z" fill="white"/>
<path d="M364.748 24.8633C362.078 43.2234 358.967 61.5566 355.414 79.8491C351.862 98.1417 347.926 116.164 343.529 134.247C342.303 139.276 341.046 144.306 339.761 149.328C339.28 151.214 338.583 153.1 339.437 154.993C340.114 156.487 341.831 157.67 344.167 156.879C345.865 156.298 344.373 154.547 342.685 155.128C342.764 155.101 342.852 155.325 342.685 155.074C342.548 154.858 342.381 154.689 342.273 154.459C341.979 153.831 341.89 153.141 341.959 152.479C342.185 150.41 342.999 148.308 343.52 146.266C344.629 141.899 345.708 137.525 346.768 133.145C348.858 124.499 350.851 115.839 352.735 107.166C356.553 89.6646 359.968 72.1157 362.981 54.5397C364.679 44.6566 366.24 34.7599 367.682 24.8565C367.869 23.5586 364.924 23.5654 364.738 24.8565L364.748 24.8633Z" fill="white"/>
<path d="M359.478 47.2051C368.261 39.6745 378.92 33.2051 391.109 28.4055C394.073 27.2428 397.115 26.1747 400.226 25.2216C403.181 24.3157 406.262 23.3761 409.403 22.8353C418.618 21.2535 415.076 31.4205 414.035 34.5977C410.355 45.8193 406.184 56.9665 401.885 68.0867C397.93 78.3146 394.161 88.6033 389.441 98.6825C385.034 108.099 379.626 117.401 371.579 125.641C370.597 126.649 369.567 127.636 368.517 128.602C367.378 129.643 369.93 130.657 371.058 129.623C380.048 121.389 386.084 111.844 390.873 102.137C395.997 91.7738 399.863 81.12 403.966 70.5474C408.441 59.0013 412.808 47.4349 416.656 35.7807C417.568 33.0091 418.648 30.1767 418.55 27.3104C418.461 25.0053 417.637 22.0849 414.251 21.0169C411.15 20.0367 407.646 21.0169 404.682 21.7807C401.394 22.6257 398.156 23.5924 395.005 24.6673C382.08 29.0748 370.519 35.3616 360.989 42.8043C359.752 43.771 358.555 44.758 357.387 45.7585C356.219 46.7589 358.28 48.2123 359.468 47.1916L359.478 47.2051Z" fill="white"/>
<path d="M396.32 121.464C401.228 122.667 405.821 120.173 409.226 118.016C412.632 115.86 415.998 113.446 418.481 110.668C420.552 108.343 424.007 104.145 419.845 102.015C416.194 100.143 410.6 101.292 407.136 102.799C393.327 108.822 392.248 125.087 404.928 132.063C411.768 135.829 421.533 136.653 429.061 133.327C430.651 132.624 429.179 130.867 427.579 131.577C422.103 134.003 415.164 133.943 409.531 131.773C403.534 129.461 399.962 125.134 399.235 120.49C398.509 115.846 400.07 110.823 404.378 107.187C406.783 105.159 410.247 103.414 414.124 103.151C415.537 103.056 417.637 103.056 418.569 103.955C419.649 104.99 418 106.984 417.303 107.957C415.311 110.756 412.357 113.129 409.138 115.292C406.164 117.286 401.738 120.646 397.115 119.503C395.329 119.064 394.554 121.024 396.33 121.457L396.32 121.464Z" fill="white"/>
<path d="M542.966 52.4441C544.32 68.6951 537.254 84.4121 530.982 99.8857C527.763 107.842 524.799 115.846 522.12 123.897C520.775 127.94 519.5 132.002 518.302 136.065C517.851 137.6 516.546 139.885 518.489 141.169C519.215 141.656 520.226 141.784 521.197 141.804C522.64 141.838 524.112 141.73 525.545 141.69C539.364 141.304 553.182 140.919 567.001 140.534C568.885 140.48 568.895 138.452 567.001 138.506C555.135 138.837 543.27 139.168 531.395 139.499C528.47 139.58 525.545 139.662 522.621 139.743C522.14 139.756 521.325 139.871 520.834 139.763C520.393 139.668 520.403 139.56 520.412 139.236C520.442 138.269 520.962 137.221 521.237 136.275C522.414 132.32 523.651 128.372 524.966 124.431C527.577 116.59 530.443 108.789 533.573 101.035C536.606 93.5178 539.825 86.0277 542.249 78.4025C544.948 69.8849 546.636 61.1712 545.91 52.4441C545.802 51.1461 542.858 51.1394 542.966 52.4441Z" fill="white"/>
<path d="M592.214 104.949C591.232 118.03 589.681 131.083 587.562 144.103C587.346 145.401 590.3 145.387 590.506 144.103C592.626 131.09 594.176 118.03 595.158 104.949C595.256 103.644 592.312 103.651 592.214 104.949Z" fill="white"/>
<path d="M597.032 90.3001C598.927 90.3001 598.927 88.2721 597.032 88.2721C595.138 88.2721 595.138 90.3001 597.032 90.3001Z" fill="white"/>
<path d="M618.32 106.382C619.439 118.158 618.928 129.995 616.798 141.703H619.743C621.588 131.536 623.462 119.875 634.533 112.25C636.81 110.688 639.46 109.329 642.443 108.478C643.837 108.079 645.329 107.788 646.82 107.639C648.312 107.491 650.295 107.335 651.433 108.194C653.651 109.857 653.121 113.007 652.846 115.035C652.434 117.996 651.355 120.889 650.324 123.769C647.979 130.306 646.212 136.924 645.054 143.609C644.828 144.901 647.772 144.894 647.998 143.609C649.117 137.106 650.884 130.671 653.16 124.31C654.26 121.247 655.359 118.185 655.791 115.035C656.124 112.588 656.36 109.526 654.23 107.383C652.101 105.24 648.116 105.314 644.71 105.848C641.305 106.382 638.184 107.538 635.446 108.998C629.429 112.209 625.366 116.82 622.717 121.673C619.223 128.075 618.025 134.943 616.808 141.69C616.573 142.981 619.517 142.967 619.753 141.69C621.892 129.981 622.393 118.145 621.274 106.369C621.146 105.071 618.202 105.064 618.33 106.369L618.32 106.382Z" fill="white"/>
<path d="M677.107 108.18C675.87 119.524 673.466 130.792 669.854 141.892C668.843 145.002 667.744 148.098 666.547 151.174C666.056 152.438 668.902 152.972 669.383 151.715C673.672 140.628 676.773 129.332 678.697 117.935C679.247 114.69 679.688 111.439 680.042 108.18C680.179 106.876 677.235 106.882 677.097 108.18H677.107Z" fill="white"/>
<path d="M683.074 95.8298C684.968 95.8298 684.968 93.8018 683.074 93.8018C681.18 93.8018 681.18 95.8298 683.074 95.8298Z" fill="white"/>
</svg>
