<svg width="31" height="31" viewBox="0 0 31 31" fill="none" xmlns="http://www.w3.org/2000/svg">
<path d="M1.5 0H11V30.0257H0L1.5 0Z" fill="white"/>
<path d="M20.5 0H11V30.0257H22L20.5 0Z" fill="white"/>
<path d="M30.5 14.7255C30.5 21.2285 26.0228 26.5002 20.5 26.5002C14.9772 26.5002 10.5 21.2285 10.5 14.7255C10.5 8.22243 14.9772 2.95068 20.5 2.95068C26.0228 2.95068 30.5 8.22243 30.5 14.7255Z" fill="#735184"/>
<path d="M23.5698 15.413V16.8221C23.5698 17.5796 23.5021 18.2186 23.3667 18.7391C23.2313 19.2596 23.0366 19.6786 22.7827 19.996C22.5288 20.3134 22.222 20.544 21.8623 20.6879C21.5068 20.8275 21.1048 20.8973 20.6562 20.8973C20.3008 20.8973 19.9728 20.8529 19.6724 20.764C19.3719 20.6752 19.1011 20.5334 18.8599 20.3387C18.6229 20.1399 18.4198 19.8817 18.2505 19.5643C18.0812 19.2469 17.9521 18.8619 17.8633 18.4091C17.7744 17.9563 17.73 17.4273 17.73 16.8221V15.413C17.73 14.6555 17.7977 14.0207 17.9331 13.5087C18.0728 12.9966 18.2695 12.5861 18.5234 12.2772C18.7773 11.9641 19.082 11.7398 19.4375 11.6044C19.7972 11.469 20.1992 11.4012 20.6436 11.4012C21.0033 11.4012 21.3333 11.4457 21.6338 11.5345C21.9385 11.6192 22.2093 11.7567 22.4463 11.9471C22.6833 12.1333 22.8843 12.383 23.0493 12.6962C23.2186 13.0051 23.3477 13.3838 23.4365 13.8324C23.5254 14.281 23.5698 14.8078 23.5698 15.413ZM22.3892 17.0126V15.2162C22.3892 14.8015 22.3638 14.4375 22.313 14.1244C22.2664 13.807 22.1966 13.5362 22.1035 13.3119C22.0104 13.0876 21.8919 12.9056 21.748 12.766C21.6084 12.6263 21.4455 12.5248 21.2593 12.4613C21.0773 12.3936 20.8721 12.3597 20.6436 12.3597C20.3643 12.3597 20.1167 12.4126 19.9009 12.5184C19.6851 12.62 19.5031 12.7829 19.355 13.0072C19.2111 13.2315 19.1011 13.5256 19.0249 13.8895C18.9487 14.2535 18.9106 14.6957 18.9106 15.2162V17.0126C18.9106 17.4273 18.9339 17.7933 18.9805 18.1107C19.0312 18.4281 19.1053 18.7032 19.2026 18.9359C19.3 19.1644 19.4185 19.3527 19.5581 19.5009C19.6978 19.649 19.8586 19.759 20.0405 19.8309C20.2267 19.8986 20.432 19.9325 20.6562 19.9325C20.944 19.9325 21.1958 19.8775 21.4116 19.7675C21.6274 19.6574 21.8073 19.486 21.9512 19.2533C22.0993 19.0163 22.2093 18.7137 22.2812 18.3456C22.3532 17.9732 22.3892 17.5288 22.3892 17.0126Z" fill="white"/>
</svg>
